<svg width="126" height="48" viewBox="0 0 126 48" fill="none" xmlns="http://www.w3.org/2000/svg">
<path d="M75.3011 26.3921C71.5788 26.3921 68.5508 29.3816 68.5508 33.056C68.5508 36.7304 71.5788 39.7199 75.3011 39.7199C79.0233 39.7199 82.0514 36.7304 82.0514 33.056C82.0514 29.3816 79.0233 26.3921 75.3011 26.3921ZM75.3011 37.4987C72.8198 37.4987 70.8008 35.5057 70.8008 33.056C70.8008 30.6062 72.8196 28.6133 75.3011 28.6133C77.7826 28.6133 79.8014 30.6062 79.8014 33.056C79.8014 35.5057 77.7824 37.4987 75.3011 37.4987Z" fill="url(#paint0_linear_8311_478)"/>
<path d="M86.5518 19.3079H84.3018V39.2533H86.5518V19.3079Z" fill="url(#paint1_linear_8311_478)"/>
<path d="M67.4258 26.3418C65.6982 26.3418 64.1209 26.9865 62.9258 28.044V26.6201C62.9256 26.6199 62.9253 26.6196 62.9251 26.6194H60.6765C60.6763 26.6196 60.676 26.6199 60.6758 26.6201V39.2532H62.9258V33.0057C62.9258 30.556 64.9446 28.563 67.4261 28.563C67.4261 28.5633 67.4261 26.3448 67.4258 26.3418Z" fill="url(#paint2_linear_8311_478)"/>
<path d="M45.4756 33.0567C45.4756 29.3118 48.3794 26.3936 52.042 26.3936C55.7046 26.3936 58.3731 29.002 58.4254 33.5991H47.804C48.0134 35.8977 49.8185 37.6279 52.1991 37.6279C53.8472 37.6279 55.1815 36.9047 56.0187 36.0785L57.4575 37.6279C56.3328 38.7902 54.4752 39.7199 52.1991 39.7199C48.327 39.7199 45.4756 36.7758 45.4756 33.0567ZM47.9086 31.6622H55.8878C55.5737 29.5445 53.8996 28.4082 51.9113 28.4339C50.0014 28.4339 48.3796 29.6995 47.9086 31.6622Z" fill="url(#paint3_linear_8311_478)"/>
<path d="M99.7709 26.6697V27.8595C98.6144 26.9426 97.1474 26.3921 95.5521 26.3921C91.8298 26.3921 88.8018 29.3816 88.8018 33.056C88.8018 36.7304 91.8298 39.7199 95.5521 39.7199C97.1474 39.7199 98.6144 39.1694 99.7709 38.2525V39.2533H102.021V34.9566V31.1554V26.6697H99.7709ZM99.7709 34.5872C99.137 36.2834 97.4877 37.4984 95.5521 37.4984C93.0708 37.4984 91.0518 35.5055 91.0518 33.0557C91.0518 30.606 93.0705 28.6131 95.5521 28.6131C97.4877 28.6131 99.137 29.8281 99.7709 31.5245C99.9496 32.0029 100.052 32.5172 100.052 33.0557C100.052 33.5948 99.9496 34.1091 99.7709 34.5872Z" fill="url(#paint4_linear_8311_478)"/>
<path d="M40.975 26.6697V27.8595C39.8185 26.9426 38.3515 26.3921 36.7562 26.3921C33.0339 26.3921 30.0059 29.3816 30.0059 33.056C30.0059 36.7304 33.0339 39.7199 36.7562 39.7199C38.3515 39.7199 39.8185 39.1694 40.975 38.2525V39.2533H43.225V34.9566V31.1554V26.6697H40.975ZM40.975 34.5872C40.3411 36.2834 38.6919 37.4984 36.7562 37.4984C34.2749 37.4984 32.2559 35.5055 32.2559 33.0557C32.2559 30.606 34.2747 28.6131 36.7562 28.6131C38.6919 28.6131 40.3411 29.8281 40.975 31.5245C41.1537 32.0029 41.2562 32.5172 41.2562 33.0557C41.2564 33.5948 41.1537 34.1091 40.975 34.5872Z" fill="url(#paint5_linear_8311_478)"/>
<path d="M105.396 19.3076V31.1554V34.9566V39.2533H107.647V38.2525C108.803 39.1694 110.27 39.7199 111.865 39.7199C115.588 39.7199 118.616 36.7304 118.616 33.056C118.616 29.3814 115.588 26.3921 111.865 26.3921C110.27 26.3921 108.803 26.9426 107.647 27.8595V19.3079H105.396V19.3076ZM107.365 33.056C107.365 32.5172 107.468 32.0029 107.647 31.5248C108.28 29.8284 109.93 28.6133 111.865 28.6133C114.347 28.6133 116.366 30.6063 116.366 33.056C116.366 35.5058 114.347 37.4987 111.865 37.4987C109.93 37.4987 108.28 36.2836 107.647 34.5875C107.468 34.1091 107.365 33.5948 107.365 33.056Z" fill="url(#paint6_linear_8311_478)"/>
<path d="M33.7506 15.0244L27.2843 3.9678C27.2379 3.88859 27.1355 3.86148 27.0552 3.90728L15.8553 10.2908C15.7928 10.3265 15.7604 10.3976 15.7748 10.4674L19.4059 27.9848L18.8743 28.5767C17.982 29.57 17.2265 30.1082 15.79 30.1082C14.1793 30.1082 13.423 29.27 12.2256 27.7883C10.8146 26.0428 9.06334 23.8763 4.86106 23.8188C4.76756 23.8177 4.68945 23.8934 4.68945 23.9857V25.7641C4.68945 25.8545 4.76449 25.9272 4.85609 25.9286C8.02969 25.9798 9.25695 27.4981 10.5552 29.1041C11.7349 30.5636 13.072 32.2177 15.79 32.2177C18.1366 32.2177 19.4275 31.1405 20.4732 29.9764L24.3304 25.6823L24.3306 25.6821L33.7307 15.2171C33.7788 15.1636 33.7866 15.0861 33.7506 15.0244Z" fill="url(#paint7_linear_8311_478)"/>
<defs>
<linearGradient id="paint0_linear_8311_478" x1="75.3011" y1="26.3921" x2="75.3011" y2="39.7199" gradientUnits="userSpaceOnUse">
<stop stop-color="#FF8800"/>
<stop offset="1" stop-color="#FF6600"/>
</linearGradient>
<linearGradient id="paint1_linear_8311_478" x1="85.4268" y1="19.3079" x2="85.4268" y2="39.2533" gradientUnits="userSpaceOnUse">
<stop stop-color="#FF8800"/>
<stop offset="1" stop-color="#FF6600"/>
</linearGradient>
<linearGradient id="paint2_linear_8311_478" x1="64.0509" y1="26.3418" x2="64.0509" y2="39.2532" gradientUnits="userSpaceOnUse">
<stop stop-color="#FF8800"/>
<stop offset="1" stop-color="#FF6600"/>
</linearGradient>
<linearGradient id="paint3_linear_8311_478" x1="51.9505" y1="26.3936" x2="51.9505" y2="39.7199" gradientUnits="userSpaceOnUse">
<stop stop-color="#FF8800"/>
<stop offset="1" stop-color="#FF6600"/>
</linearGradient>
<linearGradient id="paint4_linear_8311_478" x1="95.4113" y1="26.3921" x2="95.4113" y2="39.7199" gradientUnits="userSpaceOnUse">
<stop stop-color="#FF8800"/>
<stop offset="1" stop-color="#FF6600"/>
</linearGradient>
<linearGradient id="paint5_linear_8311_478" x1="36.6154" y1="26.3921" x2="36.6154" y2="39.7199" gradientUnits="userSpaceOnUse">
<stop stop-color="#FF8800"/>
<stop offset="1" stop-color="#FF6600"/>
</linearGradient>
<linearGradient id="paint6_linear_8311_478" x1="112.006" y1="19.3076" x2="112.006" y2="39.7199" gradientUnits="userSpaceOnUse">
<stop stop-color="#FF8800"/>
<stop offset="1" stop-color="#FF6600"/>
</linearGradient>
<linearGradient id="paint7_linear_8311_478" x1="19.2312" y1="3.88501" x2="19.2312" y2="32.2177" gradientUnits="userSpaceOnUse">
<stop stop-color="#FF8800"/>
<stop offset="1" stop-color="#FF6600"/>
</linearGradient>
</defs>
</svg>
